<svg id="eb3a4a93-056e-488a-be53-b20ba157a3d0" data-name="Layer 1" xmlns="http://www.w3.org/2000/svg" width="969.79367" height="852.85895" viewBox="0 0 969.79367 852.85895"><title>wishlist</title><path d="M892.55554,528.26824C821.64491,587.428,777.3115,648.01109,742.43281,701.65382c-62.8793,96.67741-95.07739,170.84006-196.89778,173.63493-108.66732,2.98187-246.156-59.92857-321.85636-142.81871-57.77786-63.24292-79.57571-138.10167-25.16415-204.2018C324.23153,375.53766,353.8841,181.24773,545.535,181.24773S1039.72758,405.50191,892.55554,528.26824Z" transform="translate(-115.10316 -23.57053)" fill="#f2f2f2"/><circle cx="606.17309" cy="293.69174" r="56.43256" fill="#ff6584"/><path d="M374.18,495.19886c32.90415,94.67568-11.89013,147.29388-81.319,171.4236S155.66017,677.256,122.756,582.5803s50.94857-258.80878,50.94857-258.80878S341.27588,400.52319,374.18,495.19886Z" transform="translate(-115.10316 -23.57053)" fill="#000000"/><polygon points="168.145 630.161 141.895 550.479 161.408 433.831 137.777 537.979 125.973 502.15 138.253 418.396 122.85 492.669 122.85 492.669 101.621 428.23 121.542 358.025 98.283 418.097 58.098 300.376 108.069 457.339 106.175 450.805 44.583 403.239 109.811 463.347 130.936 536.212 130.165 534.351 61.309 485.699 132.356 541.111 134.998 550.223 134.961 550.387 135.255 551.108 188.852 735.974 201.55 731.56 170.481 637.25 191.797 549.935 168.145 630.161" fill="#3f3d56"/><polygon points="421.981 655.128 423.343 571.244 480.069 467.467 423.557 558.085 424.17 520.367 463.265 445.286 424.332 510.386 424.332 510.386 425.434 442.549 467.298 382.775 425.607 431.882 426.296 307.493 421.969 472.161 422.324 465.368 379.761 400.218 421.642 478.408 417.676 554.171 417.558 552.16 368.49 483.599 417.409 559.264 416.913 568.738 416.824 568.881 416.865 569.659 406.803 761.874 420.247 761.874 421.859 662.591 470.659 587.112 421.981 655.128" fill="#3f3d56"/><path d="M742.43281,702.6928c-62.8793,96.67741-95.07739,170.84006-196.89778,173.63493-108.66732,2.98188-246.156-59.92856-321.85636-142.8187,59.46107-36.32289,163.69191-73.28988,286.53092-73.28988C597.453,660.21915,679.138,678.86892,742.43281,702.6928Z" transform="translate(-115.10316 -23.57053)" fill="#3f3d56"/><path d="M406.46049,315.522s11.27956,8.06644,16.47448-7.51831S426.05192,291.38,426.05192,291.38h-12.4678Z" transform="translate(-115.10316 -23.57053)" fill="#000000"/><path d="M406.46049,315.522s11.27956,8.06644,16.47448-7.51831S426.05192,291.38,426.05192,291.38h-12.4678Z" transform="translate(-115.10316 -23.57053)" opacity="0.1"/><circle cx="321.69059" cy="80.80858" r="56.89348" fill="#2f2e41"/><polygon points="273.105 250.734 270.587 295.544 306.334 296.551 300.293 227.574 278.643 226.567 273.105 250.734" fill="#000000"/><polygon points="273.105 250.734 270.587 295.544 306.334 296.551 300.293 227.574 278.643 226.567 273.105 250.734" opacity="0.1"/><path d="M379.145,426.356l28.195,110.26259s2.51741,62.93527,19.13232,95.66161,14.0975,41.789,14.0975,41.789l14.601-5.5383s-6.04178-71.49447-6.04178-80.05366S443.08728,552.73,443.08728,552.73s5.5383-32.72634-4.02786-63.94223,4.02786-58.90742,4.02786-58.90742Z" transform="translate(-115.10316 -23.57053)" fill="#a0616a"/><path d="M451.64648,438.943s18.62884,70.48751,16.61491,80.05367S483.36585,566.324,483.36585,566.324s7.04875,53.36911,9.06268,60.41786S508.54,682.62837,508.54,682.62837l19.63581-4.02786s-4.53134-121.3392-14.601-151.54813l-3.52437-93.1442Z" transform="translate(-115.10316 -23.57053)" fill="#a0616a"/><path d="M440.56987,657.45426s-6.04179-5.03482-6.04179-3.52437,3.0209,19.13232,3.0209,19.13232-2.51742,10.06964-3.0209,14.601c0,0-12.587,7.55224-13.09053,17.1184s-2.01393,16.61491,0,17.11839,34.23678,4.02786,34.74027-1.007a57.81621,57.81621,0,0,0,0-10.06965h2.01392v1.007s5.03483-1.51045,5.53831-3.0209,0-19.13232,0-19.13232a63.74914,63.74914,0,0,0-2.51741-16.11143l-1.51045-23.16018s-14.601,4.02786-14.601,6.04179S440.56987,657.45426,440.56987,657.45426Z" transform="translate(-115.10316 -23.57053)" fill="#2f2e41"/><path d="M521.127,668.02739s0-3.02089-8.55919,0-12.58706,6.04178-12.08357,8.5592,5.03482,20.13928,5.03482,20.13928-4.02786,19.13232-1.007,26.18107,2.01393,7.04875,2.01393,7.04875,60.41786-19.6358,59.4109-22.65669-3.52438-13.594-10.06965-14.0975-14.0975,5.5383-17.11839-2.01393-6.54527-9.56616-9.56616-18.62884c0,0-1.007-7.04875-1.51045-6.54527S522.134,669.03435,521.127,668.02739Z" transform="translate(-115.10316 -23.57053)" fill="#2f2e41"/><path d="M423.955,146.41987s17.62187,27.69152,5.03482,33.7333-13.594,3.52438-13.594,3.52438l8.05572,59.41089,25.1741,17.1184,35.24375-34.23679,1.007-1.51045,3.52437-40.782-4.53134-8.5592s-18.12535,2.51741-19.6358-12.58705-3.52437-24.67063-3.52437-24.67063Z" transform="translate(-115.10316 -23.57053)" fill="#a0616a"/><path d="M423.955,146.41987s17.62187,27.69152,5.03482,33.7333-13.594,3.52438-13.594,3.52438l8.05572,59.41089,25.1741,17.1184,35.24375-34.23679,1.007-1.51045,3.52437-40.782-4.53134-8.5592s-18.12535,2.51741-19.6358-12.58705-3.52437-24.67063-3.52437-24.67063Z" transform="translate(-115.10316 -23.57053)" opacity="0.1"/><circle cx="323.45278" cy="95.15782" r="34.23679" fill="#a0616a"/><path d="M448.62558,246.10934s-26.263-63.82263-28.78042-63.82263-15.58475,9.35086-15.58475,9.35086l-7.49349,77.63194s11.07661,40.27858,3.02089,46.32036-48.33428,92.64072-41.789,101.7034,46.82385,35.24375,70.991,33.22982,87.10241-8.05571,87.6059-14.0975-18.12536-111.773-20.64277-113.28348,3.52437-28.69849,3.52437-28.69849L495.44942,190.7263l-6.04178-14.0975-18.12536,52.86562Z" transform="translate(-115.10316 -23.57053)" fill="#2f2e41"/><path d="M426.69736,183.13227c10.34538-9.50021,6.8038-9.93606-2.779-4.16036-9.06511,5.46369-37.51778-.74272-40.74544,5.7126-4.02786,8.05572-6.54527,82.57108-5.03482,84.585s-6.54527,77.53626-3.52437,78.54322,8.55919-6.04178,11.0766-11.58009S410.36094,227.4805,410.36094,227.4805Z" transform="translate(-115.10316 -23.57053)" fill="#000000"/><path d="M477.20366,177.23968c-13.25091-6.41964-7.81558-6.77675,4.228-2.99654,9.52727,2.99039,33.08742,9.14076,36.67448,9.93789,4.53134,1.007,10.57313,9.56616,10.06965,10.57312s-5.03483,52.36215-5.03483,52.36215,4.53134,9.56616,6.04179,11.07661,24.16714,65.95616,19.13232,70.991S501.99469,345.7988,498.47032,340.764s-3.52438-35.24375-12.08357-40.78205-22.6567-71.99795-15.608-92.64072C475.52165,193.45142,482.17581,179.64851,477.20366,177.23968Z" transform="translate(-115.10316 -23.57053)" fill="#000000"/><path d="M539.75585,324.65255l-23.15016,15.55159s-32.23287,5.09118-30.21894-13.03418,29.202-19.6358,29.202-19.6358l13.594,1.007Z" transform="translate(-115.10316 -23.57053)" fill="#a0616a"/><path d="M352.46049,308.03764l23.15016,15.55159s32.23288,5.09118,30.219-13.03418-29.202-19.6358-29.202-19.6358l-13.594,1.007Z" transform="translate(-115.10316 -23.57053)" fill="#a0616a"/><path d="M389.71817,184.181a109.77452,109.77452,0,0,0-24.67063,44.30643c-7.55223,27.188-16.61491,35.24375-16.61491,40.78205s1.51045,48.33429,5.03482,48.83777,1.51045-26.18107,20.64277-25.1741c0,0-2.01393-3.52438,0-5.03483s2.51741-2.51741,1.51045-3.52437-1.51045-4.53134,0-6.04179,2.51741-9.06268,2.51741-9.06268l4.02786-1.51044Z" transform="translate(-115.10316 -23.57053)" fill="#000000"/><ellipse cx="325.71845" cy="70.23545" rx="41.78902" ry="17.11839" fill="#2f2e41"/><path d="M526.66532,191.22978s66.96313,73.00491,63.43875,80.55715-47.8308,65.95616-49.34125,64.94919-13.09054-30.20893-18.12536-30.20893c0,0,17.54257-3.88838,20.35138-8.23771s16.9063-21.97121,9.85755-26.50255-30.20893-29.70545-31.71938-30.71242S526.66532,191.22978,526.66532,191.22978Z" transform="translate(-115.10316 -23.57053)" fill="#000000"/><circle cx="321.5462" cy="23.89662" r="23.89662" fill="#2f2e41"/><rect x="579.79367" y="125" width="390" height="77" fill="#3f3d56"/><rect x="579.79367" y="215" width="390" height="77" fill="#3f3d56"/><circle cx="620.79367" cy="163" r="23" fill="#000000"/><rect x="675.79367" y="154" width="227" height="5" fill="#000000"/><rect x="675.79367" y="167" width="227" height="5" fill="#000000"/><circle cx="620.79367" cy="254" r="23" fill="#000000" opacity="0.3"/><rect x="675.79367" y="245" width="227" height="5" fill="#000000" opacity="0.3"/><rect x="675.79367" y="258" width="227" height="5" fill="#000000" opacity="0.3"/><path d="M648.35686,643.271c-.202-1.17252-4.852-28.85254,3.89363-40.08312a11.48607,11.48607,0,0,1,8.46236-4.61584,12.59191,12.59191,0,0,1,9.64345,3.35269c10.51693,9.3901,11.56527,34.99486,11.60452,36.0803l-1.46011.05281c-.01-.25976-1.06546-26.06862-11.11925-35.04338a11.16723,11.16723,0,0,0-8.55585-2.98516,10.07724,10.07724,0,0,0-7.42116,4.05563c-8.35033,10.721-3.656,38.65655-3.60746,38.93772Z" transform="translate(-115.10316 -23.57053)" fill="#2f2e41"/><polygon points="485.743 612.999 482.089 608.615 583.666 593.999 583.666 599.115 609.243 596.922 600.474 687.538 497.435 686.076 485.743 612.999" fill="#2f2e41"/><polygon points="485.743 612.999 482.089 608.615 583.666 593.999 583.666 599.115 609.243 596.922 600.474 687.538 497.435 686.076 485.743 612.999" fill="#fff" opacity="0.05"/><polygon points="612.897 692.653 517.955 732.517 517.166 732.846 479.897 713.846 481.724 608.249 513.147 610.442 509.493 614.826 510.282 614.68 608.878 596.557 612.897 692.653" fill="#2f2e41"/><polygon points="517.955 732.517 479.897 713.846 481.724 608.249 513.147 610.442 509.493 614.826 510.282 614.68 509.858 615.192 517.955 732.517" opacity="0.1"/><path d="M663.69231,643.14685s-7.30769-42.38461,11.69231-43.84615,20.46153,38.73077,20.46153,38.73077" transform="translate(-115.10316 -23.57053)" fill="none" stroke="#2f2e41" stroke-miterlimit="10" stroke-width="2"/></svg>